Brotherhood of the Wolf 2001(DualAudio) DVDRip Xvid fasamoo LKRG


RIPPER                           : fasamoo
Format                           : AVI
Format/Info                      : Audio Video Interleave
File size                        : 1.37 GiB
Duration                         : 2h 30mn
Overall bit rate                 : 1 299 Kbps
Writing application              : VirtualDubMod 1.5.4.1 (build 2178/release)
Writing library                  : VirtualDubMod build 2178/release
Language                         : English,French
Subtitles                        : English(*.srt)
                                 : English,French(*.idx,*.sub)
Genre                            : Action | History | Horror | Mystery 

Video
ID                               : 0
Format                           : MPEG-4 Visual
Format profile                   : Advanced Simple@L5
Format settings, BVOP            : Yes
Format settings, QPel            : No
Format settings, GMC             : No warppoints
Format settings, Matrix          : Custom
Codec ID                         : XVID
Codec ID/Hint                    : XviD
Duration                         : 2h 30mn
Bit rate                         : 1 050 Kbps
Width                            : 608 pixels
Height                           : 240 pixels
Display aspect ratio             : 2.533
Frame rate                       : 23.976 fps
Color space                      : YUV
Chroma subsampling               : 4:2:0
Bit depth                        : 8 bits
Scan type                        : Progressive
Bits/(Pixel*Frame)               : 0.300
Stream size                      : 1.11 GiB (81%)
Writing library                  : XviD 1.2.1 (UTC 2008-12-04)

Audio #1
ID                               : 1
Format                           : MPEG Audio
Format version                   : Version 1
Format profile                   : Layer 3
Mode                             : Joint stereo
Mode extension                   : MS Stereo
Codec ID                         : 55
Codec ID/Hint                    : MP3
Duration                         : 2h 30mn
Bit rate mode                    : Variable
Bit rate                         : 114 Kbps
Nominal bit rate                 : 128 Kbps
Channel(s)                       : 2 channels
Sampling rate                    : 48.0 KHz
Stream size                      : 123 MiB (9%)
Alignment                        : Aligned on interleaves
Interleave, duration             : 24 ms (0.58 video frame)
Interleave, preload duration     : 526 ms
Writing library                  : LAME3.98r
Encoding settings                : -m j -V 4 -q 2 -lowpass 17 --abr 128
Language                         : French

Audio #2
ID                               : 2
Format                           : MPEG Audio
Format version                   : Version 1
Format profile                   : Layer 3
Mode                             : Joint stereo
Mode extension                   : MS Stereo
Codec ID                         : 55
Codec ID/Hint                    : MP3
Duration                         : 2h 30mn
Bit rate mode                    : Variable
Bit rate                         : 115 Kbps
Nominal bit rate                 : 128 Kbps
Channel(s)                       : 2 channels
Sampling rate                    : 48.0 KHz
Stream size                      : 123 MiB (9%)
Alignment                        : Aligned on interleaves
Interleave, duration             : 24 ms (0.58 video frame)
Interleave, preload duration     : 506 ms
Writing library                  : LAME3.98r
Encoding settings                : -m j -V 4 -q 2 -lowpass 17 --abr 128
Language                         : English

PLOT

In 1765 something was stalking the mountains of central France. A 'beast' that pounced on humans and animals with terrible ferocity. Indeed they beast became so notorious that the King of France dispatched envoys to find out what was happening and to kill the creature. By the end, the Beast of Gevaudan had killed over 100 people, to this day, no one is entirely sure what it was, wolf? hyena? or something supernatural? Whatever it was, shepherds had the same life-expectancy as the red-suited guys in 'Star Trek'. The Beast is a popular myth in France, albeit one rooted firmly in reality; somewhat surprisingly it is little known to the outside world, and perhaps incredibly it has never been made into a movie. Until now... Based on the true story of the Beast of the Gevaudan that terrorized France in the mid-XVIIIth century, the movie aims to tell first and explain afterwards. In the first part, a special envoy of the King of France, altogether biologist, explorer and philosopher, arrives in the Gevaudan region, in the mountainous central part of France. The Beast has been attacking women and children for months and nobody has quite been able to harm it or even take a good look at it. In the second part, our hero Chevalier de Fronsac will not only have to fight the Beast, but also ignorance, bigotry and conspiracy and will rely on two women, one an aristocrat, the other a prostitute, as well as the enigmatic Mani, an Iroquois he met in New-France (Canada).


                                 IMBD
                     
                 http://www.imdb.com/title/tt0237534/
 
http://leetleech.org/images/01050293520091164632.png 
http://leetleech.org/images/54125444865870002126.png 
http://leetleech.org/images/17069706156800733942.png 
http://leetleech.org/images/55597155133406499276.png